<svg width="310" height="158" fill="none" xmlns="http://www.w3.org/2000/svg"><path d="M309.541 127.798v-2.696c0-.228.459-.248.459-.248h-.845l-1.303 2.557-1.304-2.557h-.846c.095 0 .428.029.428.297 0 .268.01 2.468.01 2.657 0 .188-.448.237-.448.237h1.064s-.449-.049-.449-.227v-2.558l1.399 2.746s1.219-2.369 1.396-2.696c0 .247.022 2.17.022 2.428s-.428.307-.428.307h1.272s-.427-.059-.427-.247Zm-6.863-2.964a4.61 4.61 0 0 0-.062.694c.052-.318.26-.535.417-.535h.772v2.765c0 .129-.168.288-.449.288.292 0 .855.01 1.325.01-.292 0-.459-.189-.459-.318v-2.755h.719c.23 0 .396.218.47.535 0-.119-.074-.684-.074-.684h-2.659Zm-197.9-9.172c.109-.011.221-.019.328-.041a35.142 35.142 0 0 1 4.409-.658 24.079 24.079 0 0 1 4.296 0c.521.049 1.045.079 1.568.115.081.006.165-.005.247-.011.226-.015.348-.208.24-.382a6.4 6.4 0 0 0-.176-.265c-.417-.586-.832-1.174-1.253-1.758a2.689 2.689 0 0 1-.532-1.547c-.008-.367-.021-.734-.021-1.101-.002-5.716-.001-11.433-.001-17.15h-.013c0-2.308-.001-4.615.001-6.923.002-3.488.005-6.976.014-10.463.002-.445.037-.89.078-1.334.034-.37.153-.72.363-1.036.15-.227.352-.4.615-.507.311-.126.62-.05.804.205.189.26.321.548.439.843.353.884.6 1.798.831 2.715.278 1.096.548 2.195.644 3.322.108 1.272.039 2.518-.745 3.628-.045.065-.071.143-.099.216a.531.531 0 0 0 .135.58c.184.154.396.174.619.097.101-.035.204-.08.292-.141.178-.123.352-.253.519-.39a3002.67 3002.67 0 0 0 4.627-3.814c.166-.138.328-.281.486-.427.186-.17.275-.39.322-.627.041-.208.039-.42-.029-.622-.1-.3-.2-.6-.318-.893a2195.31 2195.31 0 0 0-2.339-5.8 426.552 426.552 0 0 0-1.53-3.735 7.481 7.481 0 0 0-.432-.846c-.108-.187-.388-.26-.583-.164a4.06 4.06 0 0 0-.563.328c-.353.252-.694.518-1.038.782-.666.51-1.328 1.024-1.997 1.53-.237.18-.486.346-.735.509-.16.104-.327.015-.341-.183-.017-.235-.029-.47-.03-.706-.006-1.154-.007-2.308-.011-3.462-.001-.236.003-.473-.015-.708-.012-.172.037-.39-.195-.47-.181-.061-.303.083-.432.176-.066.047-.125.103-.188.154-.508.404-1.009.816-1.525 1.21-1.14.87-2.29 1.728-3.431 2.597-.56.426-1.113.86-1.662 1.299-.19.15-.371.315-.534.492-.336.363-.291.733.113 1.007.18.122.372.226.555.343.161.102.325.2.473.317.312.244.507.55.509.947.002.34.007.681.002 1.023-.051 4.037-.111 8.076-.155 12.114-.079 7.263-.149 14.527-.224 21.79-.01.918-.03 1.836-.046 2.753-.008.448-.064.89-.192 1.321a4.514 4.514 0 0 1-.969 1.72c-.48.542-.957 1.086-1.432 1.631-.069.078-.132.165-.101.283.022.083.166.136.358.117Zm-16.497 3.54c1.267-.076 2.533-.155 3.8-.227.992-.056 1.983-.104 2.975-.159.108-.006.216-.033.323-.054.086-.016.173-.192.124-.256-.08-.105-.154-.22-.255-.306-.267-.228-.55-.437-.82-.662-.456-.381-.912-.76-1.355-1.155a2.332 2.332 0 0 1-.815-1.825c.001-.629-.028-1.259-.053-1.888-.04-1.021-.089-2.043-.133-3.065l-.033-.786c-.086-2.149-.176-4.298-.26-6.447-.08-2.096-.154-4.193-.23-6.29-.003-.078 0-.156 0-.235h-.025l-.246-6.682c-.077-2.123-.152-4.246-.23-6.37-.005-.156-.019-.313-.026-.47-.075-1.677-.154-3.354-.224-5.03-.026-.65-.056-.618.609-.965.192-.1.4-.174.606-.247.206-.073.474.048.54.244.078.225.145.452.203.68.377 1.478.759 2.954 1.124 4.433.327 1.327.646 2.656.946 3.988.11.486.16.983.226 1.477.054.406-.045.78-.302 1.115-.114.148-.22.303-.31.464a1.83 1.83 0 0 0-.143.366c-.049.166.1.37.286.422.138.039.27.021.405-.013.334-.083.58-.294.832-.499 1.467-1.194 2.933-2.388 4.399-3.585.146-.119.295-.239.425-.373.249-.26.4-.562.406-.921a4.09 4.09 0 0 0-.099-1.015 51.275 51.275 0 0 0-.911-3.348c-.686-2.215-1.463-4.398-2.485-6.496-.3-.618-.64-1.22-.983-1.817-.144-.251-.334-.48-.518-.709-.13-.162-.328-.196-.525-.154-.159.033-.32.088-.461.163-.24.129-.468.278-.697.424-.961.614-1.92 1.232-2.883 1.844-.183.117-.377.218-.57.32-.123.065-.292-.012-.316-.144-.047-.258-.1-.516-.124-.777-.072-.757-.13-1.515-.192-2.273-.064-.785-.126-1.57-.192-2.353a.898.898 0 0 0-.043-.232c-.076-.213-.262-.308-.446-.203a7.33 7.33 0 0 0-.686.437c-1.008.733-2.011 1.471-3.017 2.207-1.924 1.407-3.85 2.813-5.771 4.224-.283.208-.55.435-.82.659-.102.084-.057.283.068.33.101.038.204.083.31.092.687.057 1.374.115 2.062.153.497.027.992.064 1.48.154.383.07.644.32.705.682.031.18.036.365.042.548.098 3.198.199 6.396.287 9.595.054 1.913.085 3.828.13 5.741.063 2.727.13 5.454.196 8.18.061 2.57.126 5.139.182 7.709.051 2.307.094 4.614.14 6.922.006.315-.008.627-.062.94-.073.427-.26.8-.554 1.124-.162.179-.335.349-.509.516-.446.429-.898.853-1.343 1.283-.135.13-.262.269-.38.414-.137.167-.035.393.182.403.302.014.607.03.91.017 1.598-.066 3.197-.141 4.795-.213.11-.005.22-.019.33-.026Zm186.722-24.116a2.693 2.693 0 0 1-.574-.001 78.504 78.504 0 0 1-1.882-.262c-1.253-.188-2.504-.38-3.756-.573-.327-.05-.655-.097-.976-.172a2.837 2.837 0 0 1-.611-.228.614.614 0 0 1-.349-.505 3.897 3.897 0 0 1-.017-.471c.011-.498.025-.996.044-1.494.04-1.048.085-2.096.128-3.143l-.025-.002c.066-1.65.129-3.3.203-4.951.011-.233.067-.466.122-.695a.993.993 0 0 1 .342-.529c.461-.38 1.007-.528 1.609-.482.26.02.477.147.602.37.193.347.39.694.55 1.055.653 1.473 1.294 2.95 1.938 4.427.886 2.033 1.774 4.067 2.658 6.101.115.266.214.539.317.81.027.073.045.151.06.228a.44.44 0 0 1-.383.517Zm6.009-3.817c-.84-2.358-1.687-4.714-2.531-7.07l-.423-1.193c-.202-.57-.578-1.007-1.116-1.32l-.281-.167c-1.239-.738-2.48-1.472-3.716-2.214-.7-.42-1.391-.853-2.089-1.276a20.11 20.11 0 0 0-.779-.447c-.481-.263-.954-.224-1.4.072a7.275 7.275 0 0 0-.713.538c-.431.368-.858.74-1.27 1.127-1.784 1.68-3.562 3.366-5.342 5.05-.156.148-.313.295-.462.45a1.923 1.923 0 0 0-.532 1.046 9.64 9.64 0 0 0-.148 1.408 180.49 180.49 0 0 1-.071 2.753c-.094 2.936-.192 5.871-.287 8.808-.016.497-.023.996-.034 1.494l-.034-.001c-.018.524-.039 1.048-.053 1.572-.084 3.094-.164 6.188-.248 9.281-.022.787-.047 1.573-.079 2.36-.031.766.211 1.434.715 2.039a53.767 53.767 0 0 1 1.58 2.02c.836 1.108 1.658 2.226 2.491 3.336.304.406.617.806.931 1.204.418.53.98.818 1.665.935.681.117 1.37.163 2.055.218.99.079 1.983.116 2.976.15.555.019 1.023-.186 1.365-.615.183-.229.362-.463.535-.7 1.646-2.265 3.29-4.532 4.934-6.8.109-.151.22-.302.318-.459a1.23 1.23 0 0 0 .133-1.06c-.111-.357-.299-.677-.513-.982-.858-1.221-1.722-2.439-2.584-3.657a2.673 2.673 0 0 0-.148-.189c-.034-.041-.075-.077-.112-.116-.176-.182-.448-.154-.538.068a7.37 7.37 0 0 0-.258.745c-.943 3.314-1.883 6.629-2.825 9.943-.065.227-.126.457-.219.675-.06.142-.164.271-.268.39a.39.39 0 0 1-.522.066 4.094 4.094 0 0 1-.494-.413c-.922-.941-1.837-1.887-2.753-2.833a5.221 5.221 0 0 1-.32-.361 1.68 1.68 0 0 1-.382-.858c-.058-.469-.135-.937-.151-1.407-.081-2.333-.145-4.666-.214-7-.089-3.015-.178-6.03-.265-9.044-.008-.315-.015-.63-.005-.944.005-.155.041-.312.084-.462a.495.495 0 0 1 .482-.363c.415-.015.823.012 1.23.112a543.869 543.869 0 0 0 7.947 1.869c.24.054.489.08.735.1.319.025.606-.078.826-.294.23-.224.456-.46.641-.718.9-1.257 1.782-2.526 2.68-3.785.328-.46.438-.941.322-1.492a12.326 12.326 0 0 0-.466-1.589Zm-57.431-14.23c.025.155.027.314.03.47.005.29.004.578.005.866l.106 43.984c.001.288-.002.577.01.865.009.209.025.42.065.625.068.346.235.642.544.854.179.122.356.247.537.367 2.857 1.881 5.715 3.763 8.573 5.643.295.194.599.374.898.564.164.104.346.165.539.184.107.01.221 0 .327-.021.261-.051.409-.306.312-.543a1.28 1.28 0 0 0-.197-.342c-.138-.162-.297-.309-.452-.458l-3.391-3.231c-.137-.13-.27-.263-.408-.391a1.286 1.286 0 0 1-.423-.913 13.13 13.13 0 0 1 .001-.865l.204-8.968.218-9.281c.006-.289.018-.577.027-.865.087-2.727.179-5.453.259-8.18.082-2.804.152-5.61.228-8.415l.01-.314.274-8.65c.03-.945.058-1.888.094-2.832.009-.235.033-.472.075-.703.045-.248.208-.428.449-.53.124-.051.26-.09.394-.103.22-.022.441-.02.661-.026.69-.017 1.38-.025 2.07-.05.33-.013.66-.047.987-.091a.655.655 0 0 0 .539-.53 3.04 3.04 0 0 0 .027-.393c.004-.262.001-.524.001-.6-.037-.605-.054-1.025-.09-1.443-.033-.385-.269-.61-.654-.72a2.803 2.803 0 0 0-.736-.088 736.02 736.02 0 0 0-2.153-.032 4.896 4.896 0 0 1-1.146-.141c-.228-.058-.401-.2-.472-.407a3.934 3.934 0 0 1-.173-.765c-.034-.259-.032-.523-.036-.785-.02-1.442-.035-2.885-.056-4.327-.016-1.18-.037-2.36-.059-3.54-.003-.183.008-.367-.08-.54-.028-.054-.155-.113-.209-.083-.07.038-.153.07-.203.125-.179.2-.351.405-.516.614a30.145 30.145 0 0 1-3.876 4.084c-.569.497-1.133 1-1.689 1.509-.835.764-1.659 1.539-2.494 2.303a169.451 169.451 0 0 1-5.665 4.954c-.166.139-.332.277-.495.418-.06.053-.112.115-.166.174-.121.133-.061.34.114.365.354.048.71.104 1.066.12.717.031 1.435.03 2.152.058 1.02.04 2.039.091 3.059.143.617.031.904.358.984.877Zm42.87 50.637a2.754 2.754 0 0 0-.327-.04c-1.268-.06-2.536-.12-3.804-.174-.497-.022-.994-.028-1.354-.037-.521-.032-.907-.062-1.293-.078a553.383 553.383 0 0 0-3.64-.145 4.687 4.687 0 0 0-.66.021c-.104.011-.206.069-.301.118-.112.058-.138.248-.068.348a.83.83 0 0 0 .388.28c.386.155.798.206 1.205.267 1.498.225 2.998.442 4.496.668.299.045.596.107.867.249.193.102.306.354.209.541-.096.186-.209.37-.346.531-.553.654-1.117 1.3-1.68 1.947-.105.121-.216.24-.341.342-.316.255-.677.356-1.076.207a7.135 7.135 0 0 1-.747-.333 779.115 779.115 0 0 1-3.64-1.87 69.131 69.131 0 0 1-1.374-.726 4.972 4.972 0 0 1-.553-.345c-.299-.216-.482-.502-.505-.866-.043-.655-.108-1.309-.12-1.964-.065-3.514-.12-7.029-.172-10.544-.035-2.413-.051-4.826-.088-7.24-.078-4.852-.164-9.704-.245-14.556-.047-2.78-.094-5.56-.139-8.341-.013-.76-.022-1.521-.035-2.282a3.126 3.126 0 0 1 .132-1.01.71.71 0 0 1 .567-.515c.296-.06.597-.105.898-.127 1.019-.072 2.038-.126 3.056-.2a10.58 10.58 0 0 0 1.065-.136c.339-.059.531-.274.558-.594a8.5 8.5 0 0 0-.026-1.65.67.67 0 0 0-.035-.153.684.684 0 0 0-.43-.447c-.29-.103-.593-.121-.897-.125-.662-.008-1.325-.012-1.987-.02-.552-.006-1.104-.013-1.656-.023a3.626 3.626 0 0 1-.979-.144.635.635 0 0 1-.402-.371 1.035 1.035 0 0 1-.063-.228 8.861 8.861 0 0 1-.138-1.33c-.068-2.123-.144-4.247-.219-6.37-.046-1.31-.094-2.622-.143-3.932a5.122 5.122 0 0 0-.029-.392.332.332 0 0 0-.052-.147c-.028-.04-.074-.085-.12-.094-.046-.009-.124.007-.148.04-.147.189-.295.378-.419.58a107.97 107.97 0 0 1-3.142 4.813 32.96 32.96 0 0 1-2.5 3.23c-1.582 1.786-3.176 3.563-4.767 5.342-.393.44-.8.868-1.193 1.309-.123.137-.223.296-.327.449-.052.077.016.233.109.261.132.038.263.088.398.1.274.024.551.032.827.035.772.01 1.546.01 2.318.023.247.005.497.024.74.066.259.045.44.197.542.438.126.3.141.611.147.927.042 2.125.088 4.25.128 6.373a5564.286 5564.286 0 0 1 .328 19.2c.061 4.118.117 8.236.172 12.354.022 1.679.037 3.358.057 5.037.003.235.001.472.021.707.046.534.3.946.807 1.204.146.074.289.153.435.227.414.209.83.416 1.243.626 3.892 1.978 7.782 3.958 11.675 5.935.389.197.789.374 1.186.557.124.058.251.112.382.149.429.122.824.069 1.143-.252a5.68 5.68 0 0 0 .476-.542c.227-.298.44-.605.653-.91.887-1.267 1.782-2.528 2.652-3.804.462-.677 1.035-1.221 1.797-1.584.22-.106.424-.245.629-.378.089-.058.161-.138.17-.254.006-.081-.139-.203-.296-.228Zm-117.42-43.834a3.247 3.247 0 0 0-.814-.123 695.915 695.915 0 0 1-3.802-.2c-1.019-.057-2.038-.126-3.057-.185-.991-.058-1.983-.11-2.975-.162a1.266 1.266 0 0 0-.324.027c-.042.008-.087.064-.101.106-.013.044-.009.116.02.145a6.5 6.5 0 0 0 .479.43c.422.34.846.675 1.275 1.005.48.37.63.843.499 1.404a8.8 8.8 0 0 1-.212.76c-.268.826-.537 1.652-.817 2.475-.663 1.946-1.457 3.847-2.227 5.755a391.382 391.382 0 0 1-4.681 11.092c-.149.339-.311.672-.482 1.001-.059.114-.159.212-.251.307-.136.14-.426.102-.493-.067a4.302 4.302 0 0 1-.204-.598c-.075-.305-.129-.617-.187-.926-.252-1.342-.504-2.683-.753-4.026-.249-1.342-.494-2.685-.741-4.027l-.741-4.028a1651.1 1651.1 0 0 1-.707-3.874c-.024-.129-.026-.26-.048-.39-.104-.607.11-1.067.651-1.418.34-.22.64-.498.955-.753.084-.068.149-.15.134-.267-.012-.08-.121-.148-.262-.148-.276-.001-.552-.006-.828.008a1012.928 1012.928 0 0 0-6.198.333c-.579.036-1.156.076-1.734.121-.107.009-.213.046-.316.077-.115.035-.201.231-.147.33.038.07.072.145.127.2.21.207.419.418.647.607.568.469.875 1.061 1.013 1.756.178.902.377 1.8.579 2.696a3355.39 3355.39 0 0 0 1.757 7.763c.628 2.767 1.264 5.532 1.89 8.3.29 1.28.56 2.566.85 3.847.188.83.096 1.614-.359 2.353-.07.113-.128.232-.193.348-.246.44-.487.882-.738 1.319l-8.872 15.469c-.093.161-.182.324-.283.48a4.457 4.457 0 0 1-.283.387 1.198 1.198 0 0 1-.84.454c-.3.029-.606.04-.908.022-.633-.038-1.264-.098-1.896-.153-1.099-.096-2.198-.194-3.296-.292-.769-.069-1.538-.136-2.307-.21-.769-.073-1.536-.157-2.304-.23-.796-.075-1.593-.141-2.39-.213l-3.212-.293-2.307-.207-2.72-.243c-.631-.057-1.264-.108-1.894-.177a2.278 2.278 0 0 1-.555-.142c-.278-.105-.43-.323-.49-.594a1.374 1.374 0 0 1 .036-.701c.039-.125.084-.25.137-.37.416-.943.83-1.886 1.256-2.825a6.23 6.23 0 0 1 .382-.696c.185-.301.451-.528.777-.688.123-.06.25-.113.374-.168l3.455-1.516c.5-.22 1.003-.436 1.5-.662.147-.067.282-.162.416-.251.112-.075.087-.271-.025-.332a1.251 1.251 0 0 0-.553-.143c-1.047-.051-2.094-.104-3.142-.153-.137-.007-.275-.001-.413-.001-.22 0-.442.005-.662-.001-.8-.02-1.6-.032-2.4-.069-.756-.035-1.402.169-1.969.658-.837.723-1.698 1.421-2.55 2.13-.462.385-.83.84-1.102 1.364-.73 1.411-1.461 2.822-2.186 4.236a4.71 4.71 0 0 0-.267.659.618.618 0 0 0 .11.598c.1.124.21.248.34.339.244.17.5.328.763.47 3.24 1.749 6.668 3.01 10.352 3.608 1.332.216 2.662.444 3.992.666 1.548.259 3.098.506 4.669.62.66.047 1.318.118 1.977.178.878.081 1.756.168 2.636.241.907.076 1.815.137 2.722.21 1.704.137 3.409.277 5.112.419.412.034.823.083 1.235.118.467.04.935.08 1.403.105.191.01.385-.015.577-.032a.726.726 0 0 0 .439-.202c.155-.148.303-.305.429-.476a8.14 8.14 0 0 0 .436-.668c3.134-5.213 6.248-10.437 9.405-15.637a189.965 189.965 0 0 0 8.48-15.569 532.546 532.546 0 0 0 5.461-11.633 3368.51 3368.51 0 0 0 4.393-9.675c.152-.336.285-.681.409-1.028.082-.232-.079-.475-.331-.554Zm-70.73 31.07a8.106 8.106 0 0 0-.494-.029c-.33-.006-.663.005-.993-.011-.609-.03-1.037-.323-1.277-.853-.076-.168-.127-.346-.18-.522-.14-.458-.166-.929-.176-1.402-.031-1.574-.071-3.147-.095-4.721-.037-2.492-.049-4.984-.097-7.475-.076-3.856-.13-7.711-.119-11.567a54.073 54.073 0 0 0-.02-1.81c-.05-1.615-.559-3.09-1.525-4.422a14.358 14.358 0 0 0-1.193-1.409c-1.972-2.088-4.011-4.12-5.899-6.281-.156-.18-.358-.324-.545-.477-.153-.125-.344-.164-.539-.178-.25-.018-.499.01-.732.096-.282.106-.562.219-.832.348-.59.285-1.177.577-1.76.874-1.654.842-3.3 1.697-4.895 2.637-.609.36-1.208.736-1.8 1.12a5.23 5.23 0 0 0-1.249 1.14c-.768.966-.982 2.03-.63 3.196.131.43.301.843.512 1.243a45.552 45.552 0 0 0 2.863 4.693c.091.13.185.261.29.382.069.08.155.15.244.21.319.214.634.037.748-.221.063-.14.088-.305.087-.459-.003-.472-.027-.943-.043-1.415-.008-.236-.02-.472-.022-.708-.003-.751.286-1.379.885-1.874.188-.155.371-.314.562-.465a74.547 74.547 0 0 1 3.713-2.768c.266-.186.54-.363.817-.535a2.7 2.7 0 0 1 .678-.287c.419-.121.758-.002 1.053.278a1.7 1.7 0 0 1 .395.596c.09.219.156.447.22.674.19.662.246 1.344.29 2.024.07 1.1.127 2.2.172 3.3.088 2.097.164 4.194.244 6.291l.012.315c.096 2.831.193 5.663.287 8.494.022.655.023 1.311.052 1.967.115 2.647.107 5.297.148 7.946.008.497-.026.996-.07 1.493a4.86 4.86 0 0 1-.369 1.527c-.14.322-.349.59-.636.809a4.557 4.557 0 0 1-1.685.811 2.918 2.918 0 0 1-.904.069c-.269-.017-.484-.138-.61-.353a4.073 4.073 0 0 1-.366-.788 13.983 13.983 0 0 1-.367-1.371c-.262-1.233-.502-2.47-.758-3.705-.442-2.134-.9-4.266-1.334-6.402a33.902 33.902 0 0 1-.513-3.346c-.037-.364-.035-.733-.046-1.1-.015-.503.19-.923.57-1.26.323-.287.658-.562.999-.828.96-.749 1.927-1.489 2.89-2.235a21 21 0 0 0 .756-.612c.1-.086.192-.19.265-.298.152-.228.084-.463-.124-.633a.942.942 0 0 0-.527-.21c-.22-.016-.44-.033-.661-.038-3.369-.091-6.732.082-10.096.227-.054.003-.11.01-.164.014-.551.038-1.101.075-1.651.114-.276.019-.551.038-.826.06-.962.079-1.924.16-2.887.237-1.155.095-2.304.222-3.425.525-.104.029-.215.06-.32.053a.281.281 0 0 1-.196-.115.63.63 0 0 1-.087-.296 53.86 53.86 0 0 1-.02-1.652c.014-2.124.041-4.25.048-6.374.017-5.273.026-10.545.038-15.818.004-1.6.012-3.2.005-4.8a1.102 1.102 0 0 1 .297-.79c.38-.417.75-.84 1.127-1.259.645-.718 1.295-1.432 1.936-2.154.141-.158.257-.338.375-.514.069-.103-.038-.306-.158-.305-.303 0-.608-.004-.908.02-.495.041-.987.105-1.48.156-1.565.16-3.132.283-4.707.296-.414.004-.828.03-1.241.044-.883.029-1.765.067-2.648.08-1.16.018-2.319.014-3.478.022-.22.002-.44.01-.66.03-.222.022-.355.28-.274.482.12.303.34.537.56.772.61.644 1.216 1.29 1.834 1.925.74.762.638.718.639 1.611.002 10.939.002 21.877.001 32.816 0 .21-.005.419-.006.629 0 .197-.09.356-.236.485-.182.161-.37.314-.561.465-1.037.826-2.072 1.653-3.114 2.473-.85.669-1.7 1.339-2.563 1.992a25.327 25.327 0 0 1-3.062 2.011c-.765.421-1.548.806-2.378 1.099-.128.045-.261.08-.394.112-.135.032-.296-.067-.305-.194-.02-.288-.042-.575-.042-.862-.003-4.565-.002-9.129-.002-13.693V72.266c0-.446.006-.891.008-1.338a1.83 1.83 0 0 1 .47-1.23c.211-.242.43-.479.643-.72a292 292 0 0 0 1.172-1.325.621.621 0 0 0 .168-.351c.005-.058-.051-.178-.11-.197-.076-.025-.153-.064-.232-.067a30.151 30.151 0 0 0-1.076-.021c-3.587-.004-7.176-.004-10.764-.01-.469 0-.938-.02-1.407-.03-.248-.004-.496-.014-.738.06-.084.025-.162.155-.15.251a.44.44 0 0 0 .139.278c.332.314.658.634 1.003.936.385.339.791.655 1.18.988.622.532.991 1.19 1.044 1.99.034.522.05 1.047.05 1.571-.007 3.672-.022 7.345-.03 11.017-.017 7.66-.03 15.32-.047 22.979-.002.682-.004 1.364-.012 2.046-.002.157-.024.313-.042.469-.008.07-.174.193-.246.182-.245-.038-.495-.06-.732-.124-1.494-.405-2.906-.984-4.198-1.816-1.923-1.24-3.692-2.66-5.407-4.144a3.136 3.136 0 0 1-.331-.35c-.11-.128-.139-.281-.14-.443a.966.966 0 0 1 .255-.65c.139-.161.3-.307.463-.448a26.404 26.404 0 0 1 3.075-2.26c.184-.117.37-.229.552-.347a.927.927 0 0 0 .188-.152c.028-.032.045-.096.031-.133a.163.163 0 0 0-.11-.087c-.498-.06-.995-.006-1.485.058-1.538.2-3.021.597-4.45 1.173a6.678 6.678 0 0 0-.45.2c-.516.251-.86.646-1.052 1.163-.064.172-.112.35-.171.535.042.145.1.293.128.447.195 1.055.68 1.986 1.313 2.86a17.304 17.304 0 0 0 3.162 3.312c1.604 1.3 3.365 2.378 5.234 3.294 1.053.516 2.134.982 3.203 1.469.299.136.595.276.902.395.271.105.365.302.373.555.01.367.019.735.019 1.102.001 7.003.002 14.007.001 21.011 0 .262-.025.524-.023.786.007.735-.316 1.298-.91 1.768-.847.672-1.658 1.385-2.484 2.082-.227.191-.454.383-.672.584-.077.07-.132.164-.191.251-.053.076.003.233.095.268.102.037.205.084.312.097.219.026.44.038.66.046 1.6.054 3.2.097 4.8.162 1.102.046 2.203.12 3.305.182.11.007.22.018.329.036 1.004.169 2.011.327 3.012.515.974.183 1.94.398 2.911.595.133.027.27.037.407.047.092.007.208-.142.176-.223-.029-.073-.047-.156-.096-.214-.172-.205-.355-.401-.535-.6-.61-.676-1.224-1.351-1.833-2.029a2.385 2.385 0 0 1-.628-1.428 12.04 12.04 0 0 1-.04-.942c0-1.863.01-3.725.01-5.588.003-5.954.004-11.909.006-17.863 0-.289-.001-.578.005-.866.003-.131.016-.262.038-.391a.38.38 0 0 1 .311-.328c1.715-.352 3.289-1.048 4.841-1.797.32-.154.638-.311.96-.459.897-.413 1.746-.9 2.555-1.451.605-.413 1.208-.83 1.816-1.24a83.9 83.9 0 0 1 1.497-.984c.136-.086.288-.153.44-.213.22-.086.482.049.5.264.027.313.045.628.045.942.001 3.148-.002 6.295-.004 9.443-.003 6.217-.008 12.434-.005 18.651 0 1.262-.09 2.515-.313 3.759a16.754 16.754 0 0 1-1.25 3.984 6.795 6.795 0 0 1-2.532 2.945c-.205.133-.408.269-.607.41-.133.093-.264.19-.383.299a1.374 1.374 0 0 0-.394.591c-.115.348.055.651.425.711.216.035.439.065.657.057.965-.04 1.93-.036 2.893-.139a39.41 39.41 0 0 1 2.476-.187 60.739 60.739 0 0 1 5.958.054 13.63 13.63 0 0 1 3.006.51c.58.167 1.167.317 1.754.462.346.085.69.182 1.056.177.282-.004.545-.06.79-.195a.512.512 0 0 0 .247-.541.828.828 0 0 0-.214-.419 8.754 8.754 0 0 0-.525-.501c-.488-.425-.987-.84-1.473-1.268a7.452 7.452 0 0 1-1.845-2.491 10.327 10.327 0 0 1-.947-3.645 37.998 37.998 0 0 1-.09-2.752c.006-6.768.006-13.536.006-20.304 0-5.036-.005-10.073 0-15.109a29.8 29.8 0 0 1 .089-1.964c.017-.26.082-.518.14-.773.142-.62.533-1.025 1.183-1.187.426-.106.855-.205 1.286-.295 2.127-.444 4.255-.887 6.384-1.322a261.79 261.79 0 0 1 3.483-.683c.16-.03.329-.02.493-.019.117.001.213.211.148.311-.044.066-.082.139-.14.192-.158.147-.323.286-.488.426-.722.61-1.445 1.218-2.17 1.826a7.126 7.126 0 0 0-1.16 1.226c-.484.657-.785 1.384-.863 2.184a8.288 8.288 0 0 0 .03 1.964c.105.727.23 1.452.376 2.172.353 1.724.705 3.449 1.091 5.166.507 2.255 1.023 4.509 1.63 6.743.152.558.307 1.116.467 1.671.148.514.404.976.77 1.379a2.673 2.673 0 0 0 1.699.887c.56.072 1.097.017 1.632-.142a5.922 5.922 0 0 0 1.268-.571c.99-.571 1.978-1.147 2.97-1.717.235-.135.473-.273.726-.374a1.76 1.76 0 0 1 .561-.1.43.43 0 0 1 .41.222c.097.186.184.381.243.58.082.277.125.565.2.844.076.28.18.552.344.797.201.299.48.492.844.593.786.217 1.532.114 2.246-.234a5.561 5.561 0 0 0 1.15-.765 9.521 9.521 0 0 0 1.361-1.372c.816-1.032 1.741-1.965 2.73-2.847.745-.663 1.482-1.335 2.218-2.008.157-.144.3-.306.44-.466.087-.099 0-.296-.13-.307Zm223.086 13.96c-.189-.105-.376-.216-.573-.307a10.773 10.773 0 0 1-1.899-1.111c-1.334-.987-2.205-2.261-2.578-3.83a20.28 20.28 0 0 1-.339-1.779 35.302 35.302 0 0 1-.337-4.233c-.052-2.255-.093-4.51-.134-6.765-.058-3.147-.113-6.294-.169-9.44-.055-3.094-.109-6.189-.165-9.283-.043-2.386-.09-4.773-.128-7.159-.005-.34.028-.68.042-1.02.014-.301.142-.556.334-.79.478-.582 1.203-.655 1.846-.279.134.079.241.214.332.341.076.106.12.236.163.36.784 2.237 1.562 4.477 2.352 6.713.331.935.302 1.34-.313 2.216-.261.37-.52.743-.769 1.12a4.555 4.555 0 0 0-.359.618c-.135.294-.192.602-.068.918.043.11.201.215.325.19.106-.022.221-.043.307-.1.204-.133.398-.28.588-.433a42.963 42.963 0 0 0 3.851-3.454c.882-.899 1.76-1.803 2.544-2.783v-1.26c-.04-.033-.106-.06-.116-.1-.098-.414-.303-.784-.502-1.158l-2.79-5.268-2.047-3.863c-.137-.258-.264-.52-.469-.738a.688.688 0 0 0-.67-.217 1.573 1.573 0 0 0-.389.127c-.244.12-.485.249-.717.389-.816.49-1.629.986-2.442 1.481-.21.129-.424.243-.67.299-.238.053-.529-.084-.606-.298a3.353 3.353 0 0 1-.181-.845c-.057-.627-.114-1.254-.19-1.88-.044-.363-.119-.723-.192-1.083-.027-.135-.288-.216-.414-.148-.269.145-.479.354-.676.573-.485.538-.966 1.079-1.444 1.621-2.039 2.311-4.077 4.623-6.114 6.935a5.39 5.39 0 0 0-.258.308 1.46 1.46 0 0 0-.123.203c-.072.134-.002.333.153.402.123.055.252.107.384.131.325.059.655.094.981.15.415.074.692.29.801.697.083.308.125.617.129.933.01.865.017 1.73.035 2.596.087 4.221.181 8.443.267 12.664.035 1.731.049 3.462.084 5.193.072 3.539.15 7.079.231 10.619a12.539 12.539 0 0 1-.284 3.048 9.055 9.055 0 0 1-.981 2.579c-.822 1.423-1.973 2.514-3.552 3.171a2.868 2.868 0 0 0-.364.181c-.035.021-.05.082-.061.127-.004.017.026.053.048.061.152.058.302.124.46.163 3.038.768 6.093 1.461 9.204 1.917 1.255.184 2.508.36 3.775.454.907.067 1.811.174 2.72.233.686.045 1.376.042 2.065.059.073.002.105-.035.092-.103-.005-.022-.013-.054-.03-.063ZM179.05 83.834c-.026.507-.336.82-.869.888a3.341 3.341 0 0 1-.413.022c-1.381.009-2.756.1-4.128.24-.849.085-1.694.208-2.532.371-.215.042-.435.063-.653.087-.104.011-.219-.077-.242-.174-.018-.076-.044-.152-.05-.23a9.167 9.167 0 0 1-.025-.55c-.07-4.377-.138-8.754-.207-13.132h.016l-.155-9.043c-.023-1.31-.041-2.622-.061-3.932-.002-.158-.007-.315-.002-.472.012-.357.136-.488.492-.483.551.008 1.103.028 1.654.049.854.032 1.709.067 2.563.103.964.041 1.929.084 2.893.128.11.005.22.016.329.03.232.03.393.174.449.402.025.102.047.205.058.31.014.13.018.26.022.392.069 2.017.134 4.034.207 6.052.078 2.148.165 4.296.248 6.444.006.157.015.314.02.472.076 2.358.148 4.717.227 7.074.048 1.415.107 2.83.158 4.244.008.236.013.473.001.708Zm-.324 5.77c-.044.094-.09.192-.156.274-.399.5-.803.997-1.21 1.493-.067.082-.151.152-.232.222a.61.61 0 0 1-.821.01 2.01 2.01 0 0 1-.278-.289 381.17 381.17 0 0 1-1.827-2.522c-.06-.085-.096-.187-.133-.284-.066-.176.09-.383.287-.39l.131-.007c.062.006.173.009.28.03 1.078.212 2.156.425 3.232.645.16.033.316.091.467.154.261.109.377.41.26.663Zm21.56 2.844a.899.899 0 0 1 .592-.705 3.55 3.55 0 0 1 .633-.173c.949-.163 1.9-.314 2.85-.47 1.14-.189 2.28-.377 3.419-.57.299-.05.596-.103.902-.078a.52.52 0 0 1 .449.305c.126.263.193.545.22.834.118 1.227.244 2.452.354 3.679.097 1.07.185 2.14.26 3.212.071 1.02.133 2.04.177 3.061.193 4.425.298 8.852.217 13.282-.006.341-.022.681-.028 1.021a2.378 2.378 0 0 1-.156.769c-.15.41-.409.74-.819.948-.17.087-.338.177-.509.261-1.053.516-2.107 1.031-3.162 1.544a8.763 8.763 0 0 1-.523.234c-.427.18-.81.083-1.149-.194-.166-.136-.313-.294-.465-.446-.646-.646-1.276-1.307-1.94-1.935-.62-.586-.917-1.293-.997-2.101-.015-.156-.014-.315-.016-.472l-.157-10.69h.009l-.182-9.59a58.424 58.424 0 0 1-.01-1.257c0-.157 0-.316.031-.47Zm.457-4.962a1.258 1.258 0 0 1 .447-.979 7.94 7.94 0 0 1 .697-.553c.485-.344.981-.675 1.473-1.01l2.349-1.601c.179-.122.358-.245.542-.36.067-.042.15-.063.227-.09.194-.066.412.102.376.288-.015.077-.025.156-.051.23a14.28 14.28 0 0 1-1.08 2.372 8.013 8.013 0 0 1-1.264 1.644 15.72 15.72 0 0 1-1.922 1.604 3.314 3.314 0 0 1-.938.485c-.266.084-.587-.072-.67-.32a1.403 1.403 0 0 1-.06-.227c-.053-.362-.101-.725-.152-1.087a.528.528 0 0 0 .026-.004v-.392Zm-15.694 5.984c.649-.61 1.264-1.246 1.743-1.99.029-.045.058-.09.094-.13a.406.406 0 0 1 .369-.133c.163.023.323.066.485.097.46.087.916.194 1.38.252.628.08 1.263.115 1.894.18.438.045.877.097 1.312.166.298.048.594.118.858.274.277.164.438.379.431.707-.016.734-.011 1.47-.02 2.203-.051 4.302-.067 8.604.173 12.902.104 1.86.21 3.719.358 5.576.045.562.228 1.063.569 1.534a26.181 26.181 0 0 0 4.06 4.448 67.868 67.868 0 0 1 4.455 4.221c.13.135.264.268.406.392.256.222.56.324.91.311.222-.008.435-.048.646-.119.702-.236 1.408-.46 2.108-.699 2.345-.8 4.579-1.817 6.675-3.102a33.723 33.723 0 0 0 2.428-1.64c.487-.362.743-.835.751-1.424.006-.42.015-.84.012-1.259-.03-4.905-.054-9.81-.098-14.715a116.24 116.24 0 0 0-.13-4.09c-.071-1.625-.168-3.248-.252-4.873-.074-1.414-.162-2.828-.213-4.243a3.406 3.406 0 0 0-.794-2.108c-.511-.62-1.008-1.25-1.538-1.853a13.574 13.574 0 0 0-1.133-1.146 78.527 78.527 0 0 1-3.609-3.469c-.207-.211-.423-.414-.637-.618a1.493 1.493 0 0 0-.558-.326c-.529-.18-1.031-.141-1.511.132-.283.163-.568.324-.844.497a64.56 64.56 0 0 1-5.711 3.178 38.102 38.102 0 0 0-4.704 2.782c-.157.107-.314.213-.464.33a1.358 1.358 0 0 0-.518.783c-.052.23-.102.462-.144.695-.079.439-.149.88-.227 1.319a5.2 5.2 0 0 1-.086.385c-.047.19-.177.27-.358.22-.158-.046-.312-.108-.473-.143-.376-.08-.752-.172-1.133-.22-.656-.081-1.317-.128-1.975-.198-.383-.04-.767-.09-1.147-.152a3.92 3.92 0 0 1-.637-.17c-.162-.056-.281-.175-.275-.354.011-.314.014-.63.056-.94.216-1.587.44-3.172.666-4.756.197-1.379.325-2.764.407-4.151.121-2.043.192-4.088.134-6.135-.052-1.81-.08-3.619-.117-5.429-.008-.393-.01-.786-.021-1.18-.022-.78-.251-1.497-.736-2.134-.081-.106-.157-.215-.235-.324-.636-.889-1.28-1.773-1.908-2.667-1.777-2.53-3.547-5.065-5.32-7.598-.138-.196-.287-.386-.409-.591-.122-.206-.346-.33-.457-.54h-1.325c-.103.034-.204.088-.31.098-.274.026-.55.033-.826.047-.634.029-1.268.05-1.901.088-1.184.072-2.368.158-3.552.229-1.211.072-2.424.134-3.636.2-.11.007-.22.02-.33.027-1.156.08-2.311.167-3.468.236-1.322.079-2.645.14-3.968.21-.909.05-1.818.102-2.727.156-.799.047-1.597.092-2.395.15-.468.033-.934.087-1.4.134-.027.003-.052.018-.079.024-.055.014-.096.151-.062.201.232.334.566.57.879.824.966.783 1.931 1.567 2.911 2.334.476.374.735.84.802 1.413.015.13.027.261.041.391.064.574.124 1.148.193 1.722.137 1.146.284 2.291.419 3.438.171 1.459.331 2.92.5 4.379.183 1.59.37 3.18.557 4.768.064.548.134 1.094.2 1.641.094.782.191 1.563.278 2.345.079.704.135 1.41.224 2.114.133 1.044.161 2.091.139 3.141-.004.21-.032.419-.059.627a.762.762 0 0 1-.208.42.324.324 0 0 1-.296.104 1.353 1.353 0 0 1-.311-.097c-.281-.12-.512-.308-.736-.504-.426-.372-.85-.749-1.278-1.12-.033-.028-.101-.026-.152-.029-.068-.005-.121.088-.107.182.016.103.03.207.051.31.547 2.703 1.102 5.404 1.64 8.108.491 2.473.969 4.948 1.368 7.436.103.647.173 1.3.247 1.952.021.18.002.365-.004.549-.004.09-.174.176-.253.131-.071-.04-.15-.07-.21-.121a6.683 6.683 0 0 1-.912-.91c-.351-.439-.702-.877-1.057-1.313a9.292 9.292 0 0 0-.42-.484c-.028-.03-.102-.046-.144-.035-.042.012-.084.06-.103.102a.331.331 0 0 0-.018.153c.106 1.228.213 2.457.323 3.685.052.575.112 1.149.168 1.723.086.862.176 1.723.255 2.585.135 1.463.259 2.927.394 4.39.14 1.515.288 3.029.432 4.544.059.627.119 1.254.176 1.88.077.836.15 1.673.228 2.509.083.887.17 1.775.255 2.663l.183 1.959c.077.836.15 1.673.228 2.508.087.941.179 1.88.268 2.821l.235 2.507c.084.888.172 1.776.252 2.664.077.862.143 1.726.22 2.588.057.627.126 1.253.187 1.88.091.914.184 1.827.267 2.741.08.862.146 1.725.222 2.588.055.627.111 1.254.175 1.881.079.783.173 1.564.247 2.348.168 1.776.326 3.552.49 5.329.125 1.358.253 2.716.381 4.074.008.076.035.15.063.259.134-.153.142-.312.148-.464.032-.865.075-1.73.084-2.596.023-2.229.136-4.457.214-6.685.007-.21.021-.419.036-.629.14-2.015.242-4.032.263-6.053.019-1.783.022-3.567.058-5.35.036-1.731.1-3.461.165-5.191a28.47 28.47 0 0 1 .13-1.727c.036-.365.098-.729.163-1.09.028-.154.088-.303.147-.449.1-.248.364-.331.612-.179.208.126.415.264.585.431.23.224.434.475.629.729.178.232.332.482.492.727.219.334.431.672.649 1.007.058.088.122.175.198.249.028.028.105.036.145.02.042-.017.094-.072.095-.111.011-.393.023-.786.013-1.179-.032-1.337-.082-2.674-.11-4.012-.057-2.78-.169-5.558-.152-8.339.008-1.312.022-2.623.052-3.935.011-.47.075-.94.121-1.41a.606.606 0 0 1 .157-.357c.043-.047.161-.083.221-.047.093.055.205.099.267.177.149.188.286.386.404.592.371.646.649 1.332.901 2.026.341.942.676 1.885 1.013 2.828.071.199.138.399.21.597.08.217.181.332.238.277.087-.084.077-.185.076-.283a8.426 8.426 0 0 0-.019-.551c-.045-.68-.104-1.36-.14-2.041-.113-2.122-.237-4.243-.319-6.366-.091-2.333-.145-4.667-.206-7a360.53 360.53 0 0 1-.089-4.406c-.028-2.125-.043-4.25-.06-6.374a2.94 2.94 0 0 1 .038-.468c.006-.04.064-.09.108-.102.042-.011.116.006.144.037.091.098.175.203.248.314.469.71.942 1.42 1.4 2.137.73 1.143 1.447 2.294 2.174 3.438.142.225.29.447.459.653.234.284.551.437.937.416a5.35 5.35 0 0 0 .737-.084 28.442 28.442 0 0 0 5.419-1.667 6.985 6.985 0 0 0 2.106-1.372Zm66.599-50.786-4.745-1.416 4.743-15.894-7.74-2.31-4.743 15.895-4.699-1.402 6.076-20.363 17.184 5.127-6.076 20.363Zm-26.805-7.953-4.794-1.033 4.478-20.773 4.794 1.033-4.478 20.773Zm-66.646-7.313-5.144.216-.171-4.085-8.371.35.17 4.085-5.144.215-.28-6.707c-.348-8.305 2.549-13.95 8.688-16.934 6.3 2.464 9.624 7.849 9.971 16.153l.281 6.707Zm-5.568-8.709c-.411-4.192-1.908-6.976-4.492-8.35-2.427 1.55-3.687 4.449-3.779 8.696l8.271-.346Zm-21.806-6.99-6.563.799 2.104 17.286-5.111.622-2.104-17.286-6.514.793-.591-4.86 6.513-.794.044-.005 5.11-.622-.043.005 6.564-.799.591 4.86Zm-23.476 13.662c.379 1.88.011 3.637-1.103 5.268-1.185 1.783-2.9 2.9-5.143 3.351-2.87.578-5.854-.35-8.952-2.781l2.57-4.121c1.24.883 2.182 1.466 2.822 1.749.978.421 1.944.536 2.901.343a2.275 2.275 0 0 0 1.375-.843c.356-.449.471-.987.345-1.614-.199-.99-1.85-1.944-4.953-2.865-3.796-1.124-5.939-2.907-6.43-5.348-.385-1.914.006-3.64 1.172-5.179 1.12-1.426 2.654-2.336 4.6-2.727 1.848-.372 4.313.11 7.397 1.447l-1.728 4.466c-2.278-.914-3.895-1.276-4.852-1.083-1.121.225-1.596.767-1.423 1.625.113.56.519.96 1.219 1.196.7.237 1.432.467 2.198.69 2.39.79 4.149 1.603 5.279 2.44 1.479 1.041 2.381 2.37 2.706 3.986Zm169.937 24.998c-2.778.307-5.34.029-7.685-.836-3.549-1.309-6.094-3.392-7.637-6.25-1.542-2.857-1.754-5.804-.634-8.842 1.109-3.007 3.214-5.1 6.313-6.28 3.141-1.2 6.411-1.172 9.809.08a16.012 16.012 0 0 1 6.405 4.31l-2.013 5.458c-1.44-2.58-3.332-4.304-5.678-5.169-2.075-.765-4.071-.818-5.988-.158-1.906.63-3.186 1.831-3.84 3.605-.655 1.775-.491 3.509.49 5.203 1.022 1.675 2.615 2.912 4.78 3.71a10.18 10.18 0 0 0 2.113.523l1.83-4.962 4.646 1.713-2.911 7.895ZM19.822 47.8l37.1-24.418 2.747 4.172-37.102 24.418-2.745-4.172Zm34.05-32.057-2.53 4.598-2.53-4.598-4.533-2.464 4.532-2.464 2.53-4.599 2.53 4.599 4.533 2.464-4.532 2.464Zm18.025.907-2.03 3.691-2.032-3.691-3.638-1.978 3.638-1.978 2.031-3.692 2.031 3.692 3.64 1.978-3.64 1.978Zm2.039 16.14-2.032 3.692-2.03-3.691-3.64-1.978 3.64-1.978 2.03-3.692 2.032 3.692 3.638 1.978-3.638 1.978Zm133.419-18.97 6.542.962.713-4.844-12.09-1.779.454.067-6.492-.955-.712 4.844 6.492.955-2.229 13.567c.59.113 1.246.19 1.931.19 1.12 0 2.305-.094 3.308-.208l2.083-12.8Z" fill="#FEC012"/><path fill-rule="evenodd" clip-rule="evenodd" d="m203.906 35.213.631-3.892c-1.732.32-3.451.533-4.43.489-1.043-.048-2.198-.201-3.466-.461-3.103-.646-6.329-2.663-9.679-6.049-2.351-2.364-4.324-4.525-5.92-6.484 2.262-1.581 3.443-3.481 3.544-5.7.093-2.05-.535-3.797-1.884-5.24-1.316-1.44-3.116-2.213-5.402-2.317l-8.068-.367-1.013 22.287 5.143.234.353-7.765 1.462.067c5.996 7.414 11.38 12.425 16.18 14.294 2.483.955 4.901 1.486 7.254 1.593 1.627.074 3.483-.216 5.295-.689Zm-27.583-24.848c2.085.095 3.09.95 3.017 2.563-.031.672-.41 1.228-1.137 1.666a4.183 4.183 0 0 1-2.402.598l-1.866-.084.22-4.841 2.168.099Z" fill="#FEC012"/><path d="m229.904 8.193-2.597 2.954-1.105-3.775-2.916-2.537 3.715-1.068 2.597-2.954 1.105 3.775 2.916 2.537-3.715 1.068Z" fill="#FEC012"/></svg>